M48
INCH,TZ
T01C.04
T02C.12
;LEADER: 12 
;HEADER: 
;CODE  : ASCII 
;FILE  : LEDSPCB-1-2.drl for board #Taaaabq07916.tmp ... layers TOP and BOTTOM
;T01 Holesize 1. = 40.000000 Tolerance = +0.000000/-0.000000 PLATED MILS Quantity = 19
;T02 Holesize 2. = 120.000000 Tolerance = +0.000000/-0.000000 NON_PLATED MILS Quantity = 2
%
G90
T01
X41022Y20000
Y30000
X64998Y20000
Y30000
X62000Y53000
X72000
X92000
X82000
X88014Y30000
Y20000
X111000
Y30000
X102000Y53000
X114000
X124000
X134000Y34717
Y17000
X159591
Y34717
T02
X20000Y35000
X190000
M30
