G04 ================== begin FILE IDENTIFICATION RECORD ==================*
G04 Layout Name:  POWERMODULEPCB.brd*
G04 Film Name:    BOTTOM*
G04 File Format:  Gerber RS274X*
G04 File Origin:  Cadence Allegro 16.6-S039*
G04 Origin Date:  Sat Sep 16 20:50:52 2017*
G04 *
G04 Layer:  ETCH/BOTTOM*
G04 Layer:  PIN/BOTTOM*
G04 Layer:  VIA CLASS/BOTTOM*
G04 *
G04 Offset:    (0.00 0.00)*
G04 Mirror:    No*
G04 Mode:      Positive*
G04 Rotation:  0*
G04 FullContactRelief:  No*
G04 UndefLineWidth:     0.00*
G04 ================== end FILE IDENTIFICATION RECORD ====================*
%FSLAX25Y25*MOIN*%
%IR0*IPPOS*OFA0.00000B0.00000*MIA0B0*SFA1.00000B1.00000*%
%ADD13C,.024*%
%ADD11C,.07*%
%ADD12R,.07X.07*%
%ADD10C,.24*%
%ADD14C,.16*%
%ADD15C,.01*%
%ADD16C,.02*%
%ADD17C,.005*%
%ADD18C,.09004*%
%ADD20C,.18004*%
%ADD19R,.09004X.09004*%
G75*
%LPD*%
G75*
G36*
G01X5001Y5001D02*
Y13431D01*
G02X5777Y13567I400J0D01*
G03X13567Y5777I12223J4433D01*
G02X13431Y5001I-136J-376D01*
G01X5001D01*
G37*
G36*
G01X22569D02*
G02X22433Y5777I0J400D01*
G03X28360Y25857I-4433J12223D01*
G02X28678Y26498I319J241D01*
G01X42878D01*
X44498Y24878D01*
Y18502D01*
X41498D01*
Y9498D01*
X50502D01*
Y18502D01*
X47502D01*
Y26122D01*
X45808Y27816D01*
G02X46091Y28498I283J282D01*
G01X52378D01*
X54498Y26378D01*
Y18244D01*
G03X57502I1502J-4244D01*
G01Y27622D01*
X56808Y28316D01*
G02X57091Y28998I283J282D01*
G01X62878D01*
X64498Y27378D01*
Y18244D01*
G03X67502I1502J-4244D01*
G01Y28622D01*
X65808Y30316D01*
G02X66091Y30998I283J282D01*
G01X72878D01*
X74498Y29378D01*
Y18244D01*
G03X77502I1502J-4244D01*
G01Y30622D01*
X74122Y34002D01*
X57122D01*
X55830Y35294D01*
G02X55940Y35938I283J283D01*
G03X52498Y35756I-1941J4062D01*
G01Y34378D01*
X52534Y34343D01*
G02X52392Y34002I-142J-141D01*
G01X37622D01*
X36158Y35466D01*
G02X36241Y36096I282J283D01*
G03X32498Y35756I-2242J3904D01*
G01Y34878D01*
X35192Y32184D01*
G02X34909Y31502I-283J-282D01*
G01X29622D01*
X25830Y35294D01*
G02X25940Y35938I283J283D01*
G03X22498Y35756I-1941J4062D01*
G01Y34378D01*
X22534Y34343D01*
G02X22392Y34002I-142J-141D01*
G01X17622D01*
X16808Y34816D01*
G02X17091Y35498I283J282D01*
G01X18502D01*
Y44502D01*
X9498D01*
Y35498D01*
X12498D01*
Y34878D01*
X15904Y31472D01*
G02X15693Y30796I-283J-283D01*
G03X5777Y22433I2307J-12796D01*
G02X5001Y22569I-376J136D01*
G01Y174398D01*
G02X5767Y174560I400J0D01*
G03X21754Y173627I8233J3640D01*
G02X22498Y173424I344J-203D01*
G01Y60171D01*
X28171Y54498D01*
X73082D01*
G03X75737Y57853I918J2002D01*
G02X76053Y58498I316J245D01*
G01X151389D01*
G03Y61502I1611J1502D01*
G01X57038D01*
G02X56802Y62224I1J400D01*
G03X57502Y64918I-1302J1776D01*
G01Y82082D01*
G03Y83918I-2002J918D01*
G01Y105171D01*
X59991Y107660D01*
G02X60662Y107473I283J-283D01*
G03X63718Y105998I2138J527D01*
G01X141998D01*
Y74498D01*
X144582D01*
G03X146418I918J2002D01*
G01X179002D01*
Y106002D01*
X168918D01*
G03X167119Y106018I-917J-2002D01*
G01X167081Y106002D01*
X166733D01*
G03X166415Y106415I-1731J-1004D01*
G01X164015Y108816D01*
G02X164298Y109498I283J282D01*
G01X198671D01*
X201485Y106684D01*
G02X201202Y106002I-283J-282D01*
G01X179998D01*
Y53998D01*
X217002D01*
Y106002D01*
X207829D01*
X200329Y113502D01*
X69779D01*
G02X69506Y114193I1J400D01*
G03X69252Y117612I-1506J1607D01*
G01Y123188D01*
G03X66748I-1252J1812D01*
G01Y117612D01*
G03X66494Y114193I1252J-1812D01*
G02X66221Y113502I-274J-291D01*
G01X61829D01*
X59502Y115829D01*
Y117582D01*
G03X58752Y120312I-2002J918D01*
G01Y123188D01*
G03X56248I-1252J1812D01*
G01Y120312D01*
G03X55498Y117582I1252J-1812D01*
G01Y114171D01*
X58169Y111500D01*
X53498Y106829D01*
Y83918D01*
G03Y82082I2002J-918D01*
G01Y75359D01*
G02X52930Y74996I-400J0D01*
G03X50389Y74502I-930J-1996D01*
G01X44122D01*
X43402Y75222D01*
Y78989D01*
G03X40398I-1502J1611D01*
G01Y73978D01*
X42878Y71498D01*
X50389D01*
G03X50498Y71389I1611J1502D01*
G01Y61378D01*
X52692Y59184D01*
G02X52409Y58502I-283J-282D01*
G01X29829D01*
X26502Y61829D01*
Y202171D01*
X31829Y207498D01*
X67329D01*
X71702Y211871D01*
Y218282D01*
G03Y220118I-2002J918D01*
G01Y247882D01*
G03X67698I-2002J918D01*
G01Y220118D01*
G03Y218282I2002J-918D01*
G01Y213529D01*
X65671Y211502D01*
X30171D01*
X22498Y203829D01*
Y182976D01*
G02X21754Y182773I-400J0D01*
G03X5767Y181840I-7754J-4573D01*
G02X5001Y182002I-366J162D01*
G01Y322431D01*
G02X5777Y322567I400J0D01*
G03Y331433I12223J4433D01*
G02X5001Y331569I-376J136D01*
G01Y340499D01*
X224999D01*
Y331569D01*
G02X224223Y331433I-400J0D01*
G03Y322567I-12223J-4433D01*
G02X224999Y322431I376J-136D01*
G01Y22569D01*
G02X224223Y22433I-400J0D01*
G03X207567Y5777I-12223J-4433D01*
G02X207431Y5001I-136J-376D01*
G01X22569D01*
G37*
G36*
G01X143000Y75500D02*
Y105000D01*
X178000D01*
Y75500D01*
X143000D01*
G37*
G36*
G01X181000Y55000D02*
Y105000D01*
X216000D01*
Y55000D01*
X181000D01*
G37*
G36*
G01X216433Y5777D02*
G03X224223Y13567I-4433J12223D01*
G02X224999Y13431I376J-136D01*
G01Y5001D01*
X216569D01*
G02X216433Y5777I0J400D01*
G37*
%LPC*%
G75*
G36*
G01X156985Y323816D02*
G03X156702Y324498I-283J282D01*
G01X155498D01*
Y333502D01*
X164502D01*
Y324498D01*
X162002D01*
Y323171D01*
X157829Y318998D01*
X102918D01*
G02Y323002I-918J2002D01*
G01X156171D01*
X156985Y323816D01*
G37*
G36*
G01X213889Y296498D02*
X203111D01*
G02Y299502I-1611J1502D01*
G01X213889D01*
G02Y296498I1611J-1502D01*
G37*
G36*
G01X113998Y292033D02*
Y300671D01*
X110671Y303998D01*
X78329D01*
X74502Y300171D01*
Y283418D01*
G02X70498I-2002J-918D01*
G01Y301829D01*
X76671Y308002D01*
X112329D01*
X116000Y304331D01*
X120171Y308502D01*
X179171D01*
X179998Y309329D01*
Y324498D01*
X177498D01*
Y333502D01*
X186502D01*
Y324498D01*
X184002D01*
Y307671D01*
X180829Y304498D01*
X121829D01*
X118002Y300671D01*
Y292033D01*
G02X113998I-2002J-4033D01*
G37*
G36*
G01X138002Y283967D02*
Y262171D01*
X132173Y256343D01*
G03X132315Y256002I142J-141D01*
G01X132329D01*
X138002Y250329D01*
Y247033D01*
G02X133998I-2002J-4033D01*
G01Y248671D01*
X130671Y251998D01*
X93545D01*
X89298Y256245D01*
Y256371D01*
X88998Y256671D01*
Y286582D01*
G02X93002I2002J918D01*
G01Y260759D01*
G03X93570Y260396I400J0D01*
G02X95418Y260402I930J-1996D01*
G01X130571D01*
X133998Y263829D01*
Y283967D01*
G02X138002I2002J4033D01*
G37*
G36*
G01X139878Y235502D02*
X140998Y236622D01*
Y299889D01*
G02X144002I1502J1611D01*
G01Y235378D01*
X141122Y232498D01*
X118122D01*
X117002Y231378D01*
Y223111D01*
G02X113998I-1502J-1611D01*
G01Y232622D01*
X116878Y235502D01*
X139878D01*
G37*
G36*
G01X185602Y232756D02*
Y228478D01*
X180308Y223184D01*
G03X180591Y222502I283J-282D01*
G01X188378D01*
X192498Y226622D01*
Y243378D01*
X190378Y245498D01*
X188344D01*
G02Y248502I-4244J1502D01*
G01X191622D01*
X195502Y244622D01*
Y225378D01*
X189622Y219498D01*
X155111D01*
G02X151329Y221368I-1611J1502D01*
G03X150868Y221829I-394J67D01*
G02X152111Y225502I-368J2171D01*
G01X178378D01*
X182598Y229722D01*
Y232756D01*
G02X185602I1502J4244D01*
G37*
G36*
G01X164111Y195502D02*
X169856D01*
G02Y192498I4244J-1502D01*
G01X164111D01*
G02Y195502I-1611J1502D01*
G37*
G36*
G01X161111Y185502D02*
X169856D01*
G02Y182498I4244J-1502D01*
G01X161111D01*
G02Y185502I-1611J1502D01*
G37*
G36*
G01X107188Y137748D02*
X92812D01*
G02Y140252I-1812J1252D01*
G01X107188D01*
G02Y137748I1812J-1252D01*
G37*
G36*
G01X182489Y127498D02*
X106111D01*
G02Y130502I-1611J1502D01*
G01X182489D01*
G02Y127498I1611J-1502D01*
G37*
G36*
G01X87002Y142582D02*
Y125918D01*
G02X82998I-2002J-918D01*
G01Y142582D01*
G02X87002I2002J918D01*
G37*
G36*
G01X193002Y122378D02*
X190122Y119498D01*
X189244D01*
G02X188904Y123241I-4244J1501D01*
G03X189534Y123158I347J199D01*
G01X189998Y123622D01*
Y171378D01*
X188878Y172498D01*
X188344D01*
G02X181254Y170511I-4244J1502D01*
G03X180602Y170202I-252J-310D01*
G01Y167798D01*
G03X181254Y167489I400J1D01*
G02Y160511I2846J-3489D01*
G03X180602Y160202I-252J-310D01*
G01Y157798D01*
G03X181254Y157489I400J1D01*
G02Y150511I2846J-3489D01*
G03X180602Y150202I-252J-310D01*
G01Y137711D01*
G02X177598I-1502J-1611D01*
G01Y150202D01*
G03X176946Y150511I-400J-1D01*
G02Y157489I-2846J3489D01*
G03X177598Y157798I252J310D01*
G01Y160202D01*
G03X176946Y160511I-400J-1D01*
G02X170067Y161998I-2846J3489D01*
G01X92418D01*
G02Y166002I-918J2002D01*
G01X170067D01*
G02X176946Y167489I4033J-2002D01*
G03X177598Y167798I252J310D01*
G01Y170202D01*
G03X176946Y170511I-400J-1D01*
G02Y177489I-2846J3489D01*
G03X177598Y177798I252J310D01*
G01Y179622D01*
X180037Y182061D01*
G02X182161Y179937I4063J1939D01*
G01X180602Y178378D01*
Y177798D01*
G03X181254Y177489I400J1D01*
G02X188344Y175502I2846J-3489D01*
G01X190122D01*
X193002Y172622D01*
Y122378D01*
G37*
G36*
G01X126582Y85998D02*
X100418D01*
G02Y90002I-918J2002D01*
G01X126582D01*
G02Y85998I918J-2002D01*
G37*
G36*
G01X128122Y70202D02*
X169189D01*
G02Y67198I1611J-1502D01*
G01X126878D01*
X121578Y72498D01*
X107111D01*
G02Y75502I-1611J1502D01*
G01X122822D01*
X128122Y70202D01*
G37*
G36*
G01X42498Y44244D02*
Y45122D01*
X45192Y47816D01*
G03X44909Y48498I-283J282D01*
G01X9918D01*
G02Y52502I-918J2002D01*
G01X162829D01*
X171002Y44329D01*
Y23033D01*
G02X166998I-2002J-4033D01*
G01Y42671D01*
X161171Y48498D01*
X100859D01*
G03X100496Y47930I0J-400D01*
G02X96889Y45498I-1996J-931D01*
G01X47122D01*
X46158Y44534D01*
G03X46241Y43904I282J-283D01*
G02X42498Y44244I-2242J-3904D01*
G37*
G36*
G01X94498Y22878D02*
X92498Y24878D01*
Y35756D01*
G02X95502I1502J4244D01*
G01Y26122D01*
X97502Y24122D01*
Y18244D01*
G02X94498I-1502J-4244D01*
G01Y22878D01*
G37*
G36*
G01X84498D02*
X82498Y24878D01*
Y35756D01*
G02X85502I1502J4244D01*
G01Y26122D01*
X87502Y24122D01*
Y18244D01*
G02X84498I-1502J-4244D01*
G01Y22878D01*
G37*
G36*
G01X116060Y123201D02*
G02X114188Y119748I-60J-2201D01*
G01X74482D01*
X72248Y121982D01*
Y123188D01*
G02X74986Y123375I1252J1812D01*
G03X74973Y122797I270J-295D01*
G01X75518Y122252D01*
X92275D01*
G03X92617Y122859I0J400D01*
G02X96312Y125252I1883J1142D01*
G01X111688D01*
G02X115676Y123662I1812J-1252D01*
G03X116060Y123201I395J-61D01*
G37*
G54D18*
X64000Y40000D03*
X74000D03*
X104000D03*
X114000D03*
X143000Y17000D03*
X124000Y40000D03*
X134000D03*
X116000Y243000D03*
X126000D03*
Y288000D03*
X118000Y329000D03*
X128000D03*
X138000D03*
X174100Y237000D03*
Y247000D03*
Y257000D03*
Y267000D03*
Y277000D03*
X170000Y329000D03*
X148000D03*
X179000Y19000D03*
X189000D03*
X184100Y194000D03*
Y257000D03*
Y267000D03*
Y277000D03*
X192000Y329000D03*
G54D20*
X134000Y178200D03*
G54D19*
X108000Y329000D03*
X153000Y17000D03*
X175000Y121000D03*
%LPD*%
G75*
G36*
G01X96183Y122580D02*
G03X96312Y122748I-1680J1424D01*
G01X111688D01*
G03X111817Y122580I1809J1256D01*
G02X111664Y122252I-153J-128D01*
G01X96336D01*
G02X96183Y122580I0J200D01*
G37*
G54D10*
X18000Y18000D03*
Y327000D03*
X212000Y18000D03*
Y327000D03*
G54D11*
X24000Y40000D03*
X54000D03*
X44000D03*
X34000D03*
X76000Y14000D03*
X66000D03*
X56000D03*
X84000Y40000D03*
X74000D03*
X64000D03*
X96000Y14000D03*
X86000D03*
X114000Y40000D03*
X104000D03*
X94000D03*
X143000Y17000D03*
X134000Y40000D03*
X124000D03*
X136000Y243000D03*
X126000D03*
X116000D03*
X136000Y288000D03*
X126000D03*
X116000D03*
X138000Y329000D03*
X128000D03*
X118000D03*
X169000Y19000D03*
X174100Y174000D03*
Y164000D03*
Y154000D03*
Y194000D03*
Y184000D03*
Y257000D03*
Y247000D03*
Y237000D03*
Y277000D03*
Y267000D03*
X148000Y329000D03*
X170000D03*
X189000Y19000D03*
X179000D03*
X185000Y121000D03*
X184100Y174000D03*
Y164000D03*
Y154000D03*
Y194000D03*
Y184000D03*
Y257000D03*
Y247000D03*
Y237000D03*
Y277000D03*
Y267000D03*
X192000Y329000D03*
G54D12*
X14000Y40000D03*
X46000Y14000D03*
X108000Y329000D03*
X153000Y17000D03*
X175000Y121000D03*
X160000Y329000D03*
X182000D03*
G54D13*
X9000Y50500D03*
X52000Y73000D03*
X41900Y80600D03*
X74000Y56500D03*
X55500Y83000D03*
Y64000D03*
X62800Y108000D03*
X68000Y115800D03*
Y125000D03*
X73500D03*
X57500Y118500D03*
Y125000D03*
X69700Y219200D03*
Y248800D03*
X72500Y282500D03*
X98500Y47000D03*
X105500Y74000D03*
X99500Y88000D03*
X90000Y124000D03*
X94500D03*
X104500Y129000D03*
X91000Y139000D03*
X109000D03*
X85000Y125000D03*
X91500Y164000D03*
X85000Y143500D03*
X94500Y258400D03*
X91000Y287500D03*
X102000Y321000D03*
X127500Y88000D03*
X113500Y124000D03*
X116000Y121000D03*
X115500Y221500D03*
X142500Y301500D03*
X145000Y80000D03*
X145500Y76500D03*
X155000Y77000D03*
X154500Y80000D03*
Y83000D03*
X153000Y60000D03*
X170800Y68700D03*
X145000Y87000D03*
X144500Y83500D03*
X150500Y101000D03*
X152500Y103500D03*
X150500Y89000D03*
X151500Y92000D03*
X153000Y95000D03*
X154500Y98000D03*
X155000Y86000D03*
X160500Y97500D03*
X162500Y100000D03*
X165000Y102000D03*
X168000Y104000D03*
X160500Y86500D03*
X161500Y89500D03*
X163000Y92500D03*
X165000Y95000D03*
X169500Y92500D03*
X172500Y95000D03*
X159500Y184000D03*
X162500Y194000D03*
X153500Y221000D03*
X150500Y224000D03*
X200000Y66500D03*
X197500Y64000D03*
X195000Y62000D03*
X189500Y64500D03*
X186500Y63000D03*
X183000Y62500D03*
X198500Y74500D03*
X199500Y78000D03*
X200000Y81500D03*
X176000Y96500D03*
X199500Y85000D03*
X202000Y93500D03*
X200500Y96500D03*
X198500Y99000D03*
X196000Y101000D03*
X189000Y99500D03*
X186000Y101000D03*
X182500Y102000D03*
X190000Y93000D03*
X187000Y95000D03*
X184000Y96500D03*
X184100Y129000D03*
X179100Y136100D03*
X201500Y298000D03*
X206000Y58500D03*
X208000Y61000D03*
X210000Y64000D03*
Y76500D03*
X210500Y80000D03*
X212000Y96500D03*
X210500Y99500D03*
X208500Y102500D03*
X210500Y83500D03*
X210000Y87000D03*
X209000Y90500D03*
X215500Y298000D03*
G54D14*
X14000Y178200D03*
X134000D03*
G54D15*
G01X46000Y14000D02*
Y25500D01*
X43500Y28000D01*
X27999D01*
X23499Y32500D01*
X17000D01*
X14000Y35500D01*
Y40000D01*
G01X66000Y14000D02*
Y28000D01*
X63500Y30500D01*
X55500D01*
X53500Y32500D01*
X37000D01*
X34000Y35500D01*
Y40000D01*
G01X44000D02*
Y44500D01*
X46500Y47000D01*
X98500D01*
G01X56000Y14000D02*
Y27000D01*
X53000Y30000D01*
X29000D01*
X24000Y35000D01*
Y40000D01*
G01X153000Y60000D02*
X54000D01*
X52000Y62000D01*
Y73000D01*
G01D02*
X43500D01*
X41900Y74600D01*
Y80600D01*
G01X76000Y14000D02*
Y30000D01*
X73500Y32500D01*
X56500D01*
X54000Y35000D01*
Y40000D01*
G01X64000Y35298D02*
Y40000D01*
G01D02*
Y44702D01*
G01X59298Y40000D02*
X64000D01*
G01D02*
X68702D01*
G01X86000Y14000D02*
Y23500D01*
X84000Y25500D01*
Y40000D01*
G01X96000Y14000D02*
Y23500D01*
X94000Y25500D01*
Y40000D01*
G01X105500Y74000D02*
X122200D01*
X127500Y68700D01*
X170800D01*
G01X104500Y129000D02*
X184100D01*
G01X138298Y17000D02*
X143000D01*
G01X115500Y221500D02*
Y232000D01*
X117500Y234000D01*
X140500D01*
X142500Y236000D01*
Y301500D01*
G01X126000Y238298D02*
Y243000D01*
G01D02*
Y247702D01*
G01X121298Y243000D02*
X126000D01*
G01D02*
X130702D01*
G01X126000Y283298D02*
Y288000D01*
G01D02*
Y292702D01*
G01X121298Y288000D02*
X126000D01*
G01D02*
X130702D01*
G01X138000Y324298D02*
Y329000D01*
G01D02*
Y333702D01*
G01X133298Y329000D02*
X138000D01*
G01D02*
X142702D01*
G01X143000Y12298D02*
Y17000D01*
G01D02*
Y21702D01*
G01Y17000D02*
X147702D01*
G01X169398Y174000D02*
X174100D01*
G01Y184000D02*
X159500D01*
G01X174100Y194000D02*
X162500D01*
G01X184100Y247000D02*
X191000D01*
X194000Y244000D01*
Y226000D01*
X189000Y221000D01*
X153500D01*
G01X184100Y237000D02*
Y229100D01*
X179000Y224000D01*
X150500D01*
G01X169398Y247000D02*
X174100D01*
G01X170000Y324298D02*
Y329000D01*
G01D02*
Y333702D01*
G01X165298Y329000D02*
X170000D01*
G01D02*
X174702D01*
G01X189000Y14298D02*
Y19000D01*
G01D02*
Y23702D01*
G01X184298Y19000D02*
X189000D01*
G01D02*
X193702D01*
G01X184100Y184000D02*
X179100Y179000D01*
Y136100D01*
G01X184100Y174000D02*
X189500D01*
X191500Y172000D01*
Y123000D01*
X189500Y121000D01*
X185000D01*
G01X174100Y169298D02*
Y174000D01*
G01X184100Y189298D02*
Y194000D01*
G01D02*
Y198702D01*
G01X179398Y194000D02*
X184100D01*
G01D02*
X188802D01*
G01X174100Y174000D02*
Y178702D01*
G01Y242298D02*
Y247000D01*
G01D02*
Y251702D01*
G01Y247000D02*
X178802D01*
G01X184100Y272298D02*
Y277000D01*
G01D02*
Y281702D01*
G01X179398Y277000D02*
X184100D01*
G01D02*
X188802D01*
G01X201500Y298000D02*
X215500D01*
G54D16*
G01X169000Y19000D02*
Y43500D01*
X162000Y50500D01*
X9000D01*
G01X74000Y56500D02*
X29000D01*
X24500Y61000D01*
Y203000D01*
X31000Y209500D01*
X66500D01*
X69700Y212700D01*
Y219200D01*
G01X55500Y83000D02*
Y64000D01*
G01X165000Y105000D02*
X162000Y108000D01*
X62800D01*
G01X57500Y118500D02*
Y115000D01*
X61000Y111500D01*
G01X208500Y102500D02*
X199500Y111500D01*
X61000D01*
G01D02*
X55500Y106000D01*
Y83000D01*
G01X69700Y248800D02*
Y219200D01*
G01X116000Y301500D02*
X111500Y306000D01*
X77500D01*
X72500Y301000D01*
Y282500D01*
G01X99500Y88000D02*
X127500D01*
G01X85000Y143500D02*
Y125000D01*
G01X174100Y164000D02*
X91500D01*
G01X136000Y243000D02*
Y249500D01*
X131500Y254000D01*
X94374D01*
X91300Y257074D01*
Y257200D01*
X91000Y257500D01*
Y287500D01*
G01X136000Y288000D02*
Y263000D01*
X131400Y258400D01*
X94500D01*
G01X160000Y329000D02*
Y324000D01*
X157000Y321000D01*
X102000D01*
G01X116000Y288000D02*
Y301500D01*
G01X182000Y329000D02*
Y308500D01*
X180000Y306500D01*
X121000D01*
X116000Y301500D01*
G01X165000Y102000D02*
Y105000D01*
G54D17*
G01X68000Y125000D02*
Y115800D01*
G01X73500Y125000D02*
Y122500D01*
X75000Y121000D01*
X116000D01*
G01X57500Y125000D02*
Y118500D01*
G01X113500Y124000D02*
X94500D01*
G01X109000Y139000D02*
X91000D01*
M02*
