G04 ================== begin FILE IDENTIFICATION RECORD ==================*
G04 Layout Name:  POWERMODULEPCB.brd*
G04 Film Name:    SMBOT*
G04 File Format:  Gerber RS274X*
G04 File Origin:  Cadence Allegro 16.6-S039*
G04 Origin Date:  Sat Sep 16 20:50:52 2017*
G04 *
G04 Layer:  VIA CLASS/SOLDERMASK_BOTTOM*
G04 Layer:  PIN/SOLDERMASK_BOTTOM*
G04 Layer:  DRC ERROR CLASS/SOLDERMASK_BOTTOM*
G04 *
G04 Offset:    (0.00 0.00)*
G04 Mirror:    No*
G04 Mode:      Positive*
G04 Rotation:  0*
G04 FullContactRelief:  No*
G04 UndefLineWidth:     0.00*
G04 ================== end FILE IDENTIFICATION RECORD ====================*
%FSLAX25Y25*MOIN*%
%IR0*IPPOS*OFA0.00000B0.00000*MIA0B0*SFA1.00000B1.00000*%
%ADD13C,.03*%
%ADD11C,.08*%
%ADD12R,.08X.08*%
%ADD10C,.25*%
%ADD14C,.17*%
%LPD*%
G75*
G54D10*
X18000Y18000D03*
Y327000D03*
X212000Y18000D03*
Y327000D03*
G54D11*
X24000Y40000D03*
X54000D03*
X44000D03*
X34000D03*
X76000Y14000D03*
X66000D03*
X56000D03*
X84000Y40000D03*
X74000D03*
X64000D03*
X96000Y14000D03*
X86000D03*
X114000Y40000D03*
X104000D03*
X94000D03*
X143000Y17000D03*
X134000Y40000D03*
X124000D03*
X136000Y243000D03*
X126000D03*
X116000D03*
X136000Y288000D03*
X126000D03*
X116000D03*
X138000Y329000D03*
X128000D03*
X118000D03*
X169000Y19000D03*
X174100Y174000D03*
Y164000D03*
Y154000D03*
Y194000D03*
Y184000D03*
Y257000D03*
Y247000D03*
Y237000D03*
Y277000D03*
Y267000D03*
X148000Y329000D03*
X170000D03*
X189000Y19000D03*
X179000D03*
X185000Y121000D03*
X184100Y174000D03*
Y164000D03*
Y154000D03*
Y194000D03*
Y184000D03*
Y257000D03*
Y247000D03*
Y237000D03*
Y277000D03*
Y267000D03*
X192000Y329000D03*
G54D12*
X14000Y40000D03*
X46000Y14000D03*
X108000Y329000D03*
X153000Y17000D03*
X175000Y121000D03*
X160000Y329000D03*
X182000D03*
G54D13*
X9000Y50500D03*
X52000Y73000D03*
X41900Y80600D03*
X74000Y56500D03*
X55500Y83000D03*
Y64000D03*
X62800Y108000D03*
X68000Y115800D03*
Y125000D03*
X73500D03*
X57500Y118500D03*
Y125000D03*
X69700Y219200D03*
Y248800D03*
X72500Y282500D03*
X98500Y47000D03*
X105500Y74000D03*
X99500Y88000D03*
X90000Y124000D03*
X94500D03*
X104500Y129000D03*
X91000Y139000D03*
X109000D03*
X85000Y125000D03*
X91500Y164000D03*
X85000Y143500D03*
X94500Y258400D03*
X91000Y287500D03*
X102000Y321000D03*
X127500Y88000D03*
X113500Y124000D03*
X116000Y121000D03*
X115500Y221500D03*
X142500Y301500D03*
X145000Y80000D03*
X145500Y76500D03*
X155000Y77000D03*
X154500Y80000D03*
Y83000D03*
X153000Y60000D03*
X170800Y68700D03*
X145000Y87000D03*
X144500Y83500D03*
X150500Y101000D03*
X152500Y103500D03*
X150500Y89000D03*
X151500Y92000D03*
X153000Y95000D03*
X154500Y98000D03*
X155000Y86000D03*
X160500Y97500D03*
X162500Y100000D03*
X165000Y102000D03*
X168000Y104000D03*
X160500Y86500D03*
X161500Y89500D03*
X163000Y92500D03*
X165000Y95000D03*
X169500Y92500D03*
X172500Y95000D03*
X159500Y184000D03*
X162500Y194000D03*
X153500Y221000D03*
X150500Y224000D03*
X200000Y66500D03*
X197500Y64000D03*
X195000Y62000D03*
X189500Y64500D03*
X186500Y63000D03*
X183000Y62500D03*
X198500Y74500D03*
X199500Y78000D03*
X200000Y81500D03*
X176000Y96500D03*
X199500Y85000D03*
X202000Y93500D03*
X200500Y96500D03*
X198500Y99000D03*
X196000Y101000D03*
X189000Y99500D03*
X186000Y101000D03*
X182500Y102000D03*
X190000Y93000D03*
X187000Y95000D03*
X184000Y96500D03*
X184100Y129000D03*
X179100Y136100D03*
X201500Y298000D03*
X206000Y58500D03*
X208000Y61000D03*
X210000Y64000D03*
Y76500D03*
X210500Y80000D03*
X212000Y96500D03*
X210500Y99500D03*
X208500Y102500D03*
X210500Y83500D03*
X210000Y87000D03*
X209000Y90500D03*
X215500Y298000D03*
G54D14*
X14000Y178200D03*
X134000D03*
M02*
