G04 ================== begin FILE IDENTIFICATION RECORD ==================*
G04 Layout Name:  POWERMODULEPCB.brd*
G04 Film Name:    TOP*
G04 File Format:  Gerber RS274X*
G04 File Origin:  Cadence Allegro 16.6-S039*
G04 Origin Date:  Sat Sep 16 20:50:51 2017*
G04 *
G04 Layer:  ETCH/TOP*
G04 Layer:  PIN/TOP*
G04 Layer:  VIA CLASS/TOP*
G04 *
G04 Offset:    (0.00 0.00)*
G04 Mirror:    No*
G04 Mode:      Positive*
G04 Rotation:  0*
G04 FullContactRelief:  No*
G04 UndefLineWidth:     0.00*
G04 ================== end FILE IDENTIFICATION RECORD ====================*
%FSLAX25Y25*MOIN*%
%IR0*IPPOS*OFA0.00000B0.00000*MIA0B0*SFA1.00000B1.00000*%
%ADD13C,.024*%
%ADD11C,.07*%
%ADD12R,.07X.07*%
%ADD18R,.03937X.10827*%
%ADD19R,.15748X.07874*%
%ADD10C,.24*%
%ADD14C,.16*%
%ADD21R,.04331X.01181*%
%ADD17R,.0374X.05315*%
%ADD15R,.4252X.40945*%
%ADD20R,.09252X.02165*%
%ADD24R,.04724X.04724*%
%ADD23R,.04724X.04724*%
%ADD16R,.02756X.05118*%
%ADD22R,.04724X.06299*%
%ADD25C,.01*%
%ADD26C,.02*%
%ADD27C,.005*%
%ADD30C,.09004*%
%ADD38R,.10256X.03168*%
%ADD32R,.0594X.1283*%
%ADD34R,.11256X.04168*%
%ADD33R,.17752X.09876*%
%ADD28R,.37004X.52004*%
%ADD37C,.18004*%
%ADD29R,.09004X.09004*%
%ADD35R,.06726X.08302*%
%ADD36R,.05744X.07318*%
%ADD31R,.44524X.42948*%
G75*
%LPD*%
G75*
G36*
G01X22569Y5001D02*
G02X22433Y5777I0J400D01*
G03X5777Y22433I-4433J12223D01*
G02X5001Y22569I-376J136D01*
G01Y174398D01*
G02X5767Y174560I400J0D01*
G03Y181840I8233J3640D01*
G02X5001Y182002I-366J162D01*
G01Y322431D01*
G02X5777Y322567I400J0D01*
G03Y331433I12223J4433D01*
G02X5001Y331569I-376J136D01*
G01Y340499D01*
X224999D01*
Y331569D01*
G02X224223Y331433I-400J0D01*
G03Y322567I-12223J-4433D01*
G02X224999Y322431I376J-136D01*
G01Y22569D01*
G02X224223Y22433I-400J0D01*
G03X207567Y5777I-12223J-4433D01*
G02X207431Y5001I-136J-376D01*
G01X22569D01*
G37*
G36*
G01X5001D02*
Y13431D01*
G02X5777Y13567I400J0D01*
G03X13567Y5777I12223J4433D01*
G02X13431Y5001I-136J-376D01*
G01X5001D01*
G37*
G36*
G01X216433Y5777D02*
G03X224223Y13567I-4433J12223D01*
G02X224999Y13431I376J-136D01*
G01Y5001D01*
X216569D01*
G02X216433Y5777I0J400D01*
G37*
%LPC*%
G75*
G36*
G01X212580Y265498D02*
Y263440D01*
X207820D01*
Y270560D01*
X212580D01*
Y268502D01*
X212878D01*
X213998Y269622D01*
Y296389D01*
G02X217002I1502J1611D01*
G01Y268378D01*
X214122Y265498D01*
X212580D01*
G37*
G36*
G01X113998Y247033D02*
Y283967D01*
G02X118002I2002J4033D01*
G01Y247033D01*
G02X113998I-2002J-4033D01*
G37*
G36*
G01X86826Y243543D02*
G03X87109Y242860I283J-283D01*
G01X88580D01*
Y235740D01*
X83820D01*
Y242498D01*
X80980D01*
Y235740D01*
X76220D01*
Y237798D01*
X73422D01*
X64212Y228588D01*
X59360D01*
Y223675D01*
X53420D01*
Y236505D01*
X59360D01*
Y231592D01*
X62968D01*
X72178Y240802D01*
X76220D01*
Y242860D01*
X77098D01*
Y243481D01*
X78174Y244557D01*
G03X77891Y245240I-283J283D01*
G01X76420D01*
Y246798D01*
X70618D01*
G02Y250802I-918J2002D01*
G01X76420D01*
Y252360D01*
X81180D01*
Y245502D01*
X84020D01*
Y252360D01*
X88780D01*
Y245240D01*
X87902D01*
Y244619D01*
X86826Y243543D01*
G37*
G36*
G01X176102Y159967D02*
Y158033D01*
G02X172098I-2002J-4033D01*
G01Y159967D01*
G02X176102I2002J4033D01*
G37*
G36*
G01X185602Y149756D02*
Y130611D01*
G02X182598I-1502J-1611D01*
G01Y149756D01*
G02X185602I1502J4244D01*
G37*
G36*
G01X179502Y125502D02*
Y116498D01*
X170498D01*
Y125502D01*
X173498D01*
Y135622D01*
X175478Y137602D01*
X177489D01*
G02Y134598I1611J-1502D01*
G01X176722D01*
X176502Y134378D01*
Y125502D01*
X179502D01*
G37*
G36*
G01X113170Y95864D02*
Y89136D01*
X106444D01*
Y95864D01*
X107806D01*
Y98136D01*
X110671Y101002D01*
X118171D01*
X118339Y101169D01*
G03X118197Y101510I-142J141D01*
G01X117436D01*
Y108238D01*
X124162D01*
Y101510D01*
X122800D01*
Y99970D01*
X119829Y96998D01*
X112329D01*
X111808Y96478D01*
Y95864D01*
X113170D01*
G37*
G36*
G01X57172Y80998D02*
X56419D01*
X56381Y80982D01*
G02Y85018I-881J2018D01*
G01X56419Y85002D01*
X57172D01*
Y85084D01*
X68428D01*
Y80916D01*
X57172D01*
Y80998D01*
G37*
G36*
G01X113170Y83490D02*
Y76762D01*
X106444D01*
Y83490D01*
X107806D01*
Y84829D01*
X110978Y88002D01*
X118171D01*
X118798Y88628D01*
Y89136D01*
X117436D01*
Y95864D01*
X124162D01*
Y89136D01*
X122800D01*
Y86970D01*
X119829Y83998D01*
X112636D01*
X112468Y83831D01*
G03X112610Y83490I142J-141D01*
G01X113170D01*
G37*
G36*
G01X57172Y71498D02*
X53611D01*
G02Y74502I-1611J1502D01*
G01X57172D01*
Y75084D01*
X68428D01*
Y70916D01*
X57172D01*
Y71498D01*
G37*
G36*
G01X76002Y55582D02*
Y44033D01*
G02X71998I-2002J-4033D01*
G01Y55582D01*
G02X76002I2002J918D01*
G37*
G36*
G01X157502Y21502D02*
Y12498D01*
X148498D01*
Y21502D01*
X151498D01*
Y58389D01*
G02X154502I1502J1611D01*
G01Y21502D01*
X157502D01*
G37*
G36*
G01X32372Y54641D02*
X26628D01*
Y61959D01*
X27498D01*
Y63287D01*
X29370Y65158D01*
G03X29087Y65841I-283J283D01*
G01X26628D01*
Y73159D01*
X27671D01*
X30869Y76357D01*
G03X30586Y77040I-283J283D01*
G01X26620D01*
Y84160D01*
X29250D01*
G03X29533Y84843I0J400D01*
G01X27498Y86878D01*
Y88040D01*
X26620D01*
Y95160D01*
X28543D01*
G03X28826Y95843I0J400D01*
G01X26998Y97671D01*
Y99040D01*
X26620D01*
Y106160D01*
X31380D01*
Y99502D01*
X34220D01*
Y106160D01*
X38980D01*
Y104602D01*
X44329D01*
X47502Y101429D01*
Y95829D01*
X53329Y90002D01*
X57172D01*
Y90084D01*
X60798D01*
Y107082D01*
G02X64802I2002J918D01*
G01Y90084D01*
X68428D01*
Y85916D01*
X57172D01*
Y85998D01*
X51671D01*
X49184Y88485D01*
G03X48502Y88202I-282J-283D01*
G01Y82175D01*
X50675Y80002D01*
X57172D01*
Y80084D01*
X68252D01*
X68998Y80830D01*
Y86829D01*
X72171Y90002D01*
X75572D01*
Y90084D01*
X86828D01*
Y90002D01*
X98582D01*
G02Y85998I918J-2002D01*
G01X86828D01*
Y85916D01*
X75572D01*
Y85998D01*
X73829D01*
X73002Y85171D01*
Y79172D01*
X69828Y75998D01*
X68428D01*
Y75916D01*
X57172D01*
Y75998D01*
X50675D01*
X47675Y72998D01*
X38772D01*
Y66002D01*
X54582D01*
G02Y61998I918J-2002D01*
G01X38772D01*
Y54641D01*
X33028D01*
Y61998D01*
X32372D01*
Y54641D01*
G37*
G36*
G01X105502Y44244D02*
G02X102498I-1502J-4244D01*
G01Y48122D01*
X104692Y50316D01*
G03X104409Y50998I-283J282D01*
G01X101122D01*
X100002Y49878D01*
Y48611D01*
G02X96998I-1502J-1611D01*
G01Y51122D01*
X99878Y54002D01*
X110643D01*
G03X110926Y54684I0J400D01*
G01X110102Y55508D01*
Y56128D01*
X109224D01*
Y62998D01*
X99378D01*
X90878Y71498D01*
X86828D01*
Y70916D01*
X75572D01*
Y75084D01*
X86828D01*
Y74502D01*
X92122D01*
X93316Y73308D01*
G03X93998Y73591I282J283D01*
G01Y81378D01*
X93878Y81498D01*
X86828D01*
Y80916D01*
X75572D01*
Y85084D01*
X86828D01*
Y84502D01*
X95122D01*
X97002Y82622D01*
Y73622D01*
X97622Y73002D01*
X102362D01*
X103297Y73937D01*
X103298Y74019D01*
G02X105489Y71798I2202J-19D01*
G01X105406D01*
X105107Y71500D01*
X105917Y70690D01*
X109224D01*
Y72750D01*
X113984D01*
Y66002D01*
X116824D01*
Y72750D01*
X117202D01*
Y75498D01*
X117784Y76080D01*
G03X117501Y76762I-283J282D01*
G01X117436D01*
Y83490D01*
X124162D01*
Y82128D01*
X125171D01*
X125498Y82455D01*
Y87082D01*
G02X128853Y89737I2002J918D01*
G03X129498Y90053I245J316D01*
G01Y142878D01*
X125378Y146998D01*
X116878D01*
X114934Y148942D01*
G03X114252Y148659I-282J-283D01*
G01Y142518D01*
X117252Y139518D01*
Y122812D01*
G02X113824Y121338I-1252J-1812D01*
G03X113440Y121799I-395J61D01*
G02X112407Y122088I59J2201D01*
G03X111808Y121741I-199J-347D01*
G01Y108238D01*
X113170D01*
Y101510D01*
X106444D01*
Y108238D01*
X107806D01*
Y129864D01*
X103498Y134171D01*
Y144202D01*
G03X102816Y144485I-400J0D01*
G01X99829Y141498D01*
X92538D01*
G03X92302Y140776I1J-400D01*
G02X92252Y137188I-1302J-1776D01*
G01Y132560D01*
X93379D01*
Y126500D01*
G03X93890Y126116I400J0D01*
G02X95618Y125897I610J-2116D01*
G03X96220Y126242I202J345D01*
G01Y132560D01*
X100980D01*
Y130502D01*
X102889D01*
G02Y127498I1611J-1502D01*
G01X100980D01*
Y125440D01*
X100102D01*
Y122560D01*
X100980D01*
Y115440D01*
X96220D01*
Y122141D01*
G03X95894Y122295I-200J-1D01*
G02X95752Y122188I-1395J1704D01*
G01Y119482D01*
X94018Y117748D01*
X93380D01*
Y115440D01*
X88620D01*
Y117748D01*
X86482D01*
X84482Y119748D01*
X83516D01*
Y119408D01*
X77182D01*
Y119447D01*
G03X76499Y119729I-400J-1D01*
G01X75018Y118248D01*
X70482D01*
X68982Y119748D01*
X66916D01*
Y119408D01*
X65000D01*
Y119141D01*
X63594Y117734D01*
G03X63877Y117052I283J-282D01*
G01X66188D01*
G02Y114548I1812J-1252D01*
G01X55572D01*
Y112141D01*
X49828D01*
Y119698D01*
X49172D01*
Y112141D01*
X43428D01*
Y119459D01*
X45048D01*
Y120018D01*
X45688Y120658D01*
G03X45406Y121341I-283J283D01*
G01X43428D01*
Y128659D01*
X49172D01*
Y122202D01*
X49828D01*
Y128659D01*
X50698D01*
Y129987D01*
X51020Y130309D01*
Y137660D01*
X55780D01*
Y130540D01*
X55402D01*
Y129029D01*
X55373Y129000D01*
G03X55514Y128659I142J-141D01*
G01X55572D01*
Y127106D01*
G03X56206Y126782I400J0D01*
G02X56816Y127093I1293J-1782D01*
G03X56974Y127756I-125J380D01*
G01X56748Y127982D01*
Y137482D01*
X55982Y138248D01*
X48018D01*
X47772Y138002D01*
G03X47913Y137660I141J-142D01*
G01X48180D01*
Y130540D01*
X43420D01*
Y132098D01*
X14929D01*
X11002Y128171D01*
Y51418D01*
G02X6998I-2002J-918D01*
G01Y129829D01*
X13271Y136102D01*
X43420D01*
Y137660D01*
X44548D01*
Y138318D01*
X46982Y140752D01*
X57018D01*
X59252Y138518D01*
Y129018D01*
X60018Y128252D01*
X60582D01*
Y130592D01*
X66916D01*
Y130252D01*
X70018D01*
X72252Y128018D01*
Y127460D01*
G03X72782Y127082I400J0D01*
G02X73800Y127182I718J-2082D01*
G01X73898Y127168D01*
X74982Y128252D01*
X77182D01*
Y130592D01*
X83516D01*
Y130252D01*
X88620D01*
Y132560D01*
X89748D01*
Y137188D01*
G02X89698Y140776I1252J1812D01*
G03X89462Y141498I-237J322D01*
G01X85918D01*
G02Y145502I-918J2002D01*
G01X98171D01*
X99998Y147329D01*
Y200702D01*
G03X99316Y200985I-400J0D01*
G01X93502Y195171D01*
Y164918D01*
G02X89498I-2002J-918D01*
G01Y196829D01*
X96498Y203829D01*
Y217702D01*
G03X95816Y217985I-400J0D01*
G01X91829Y213998D01*
X38671D01*
X34308Y218361D01*
Y223675D01*
X33340D01*
Y228088D01*
X32580D01*
Y223675D01*
X26640D01*
Y236505D01*
X32580D01*
Y232092D01*
X33340D01*
Y236505D01*
X39280D01*
Y223675D01*
X38312D01*
Y220019D01*
X40329Y218002D01*
X49702D01*
G03X49985Y218684I0J400D01*
G01X47688Y220981D01*
Y223675D01*
X46720D01*
Y236505D01*
X52660D01*
Y223675D01*
X51692D01*
Y222639D01*
X53129Y221202D01*
X68782D01*
G02X70618I918J-2002D01*
G01X83096D01*
X85124Y223229D01*
Y224209D01*
X83762D01*
Y232511D01*
X90488D01*
Y224209D01*
X89126D01*
Y221571D01*
X86240Y218684D01*
G03X86523Y218002I283J-282D01*
G01X90171D01*
X92498Y220329D01*
Y256398D01*
X88572D01*
Y254741D01*
X82828D01*
Y262059D01*
X88572D01*
Y260402D01*
X93582D01*
G02X95853Y260137I917J-2002D01*
G03X96498Y260453I245J316D01*
G01Y283671D01*
X94671Y285498D01*
X91918D01*
G02X90082I-918J2002D01*
G01X88572D01*
Y283841D01*
X86455D01*
G03X86172Y283158I0J-400D01*
G01X87702Y281629D01*
Y281459D01*
X88572D01*
Y274141D01*
X87702D01*
Y271759D01*
X88572D01*
Y264441D01*
X82828D01*
Y271759D01*
X83698D01*
Y274141D01*
X82828D01*
Y280498D01*
X82172D01*
Y274141D01*
X76428D01*
Y280498D01*
X73418D01*
G02Y284502I-918J2002D01*
G01X76428D01*
Y291159D01*
X82172D01*
Y284502D01*
X82828D01*
Y291159D01*
X88572D01*
Y289502D01*
X90082D01*
G02X91918I918J-2002D01*
G01X96329D01*
X99316Y286515D01*
G03X99998Y286798I282J283D01*
G01Y301671D01*
X92998Y308671D01*
Y312444D01*
X91636D01*
Y318998D01*
X89364D01*
Y312444D01*
X82636D01*
Y319170D01*
X83998D01*
Y319998D01*
X77852D01*
Y317062D01*
X60100D01*
Y326938D01*
X77852D01*
Y324002D01*
X82636D01*
Y330162D01*
X89364D01*
Y328800D01*
X91636D01*
Y330162D01*
X92998D01*
Y333829D01*
X99171Y340002D01*
X189329D01*
X194002Y335329D01*
Y333033D01*
G02X189998I-2002J-4033D01*
G01Y333671D01*
X187671Y335998D01*
X133091D01*
G03X132808Y335316I0J-400D01*
G01X134502Y333622D01*
Y332798D01*
G03X135154Y332489I400J1D01*
G02Y325511I2846J-3489D01*
G03X134502Y325202I-252J-310D01*
G01Y319122D01*
X144002Y309622D01*
Y303111D01*
G02X144237Y300147I-1502J-1610D01*
G03X144553Y299502I316J-245D01*
G01X199889D01*
G02X200040Y299649I1610J-1503D01*
G03X199908Y299998I-133J149D01*
G01X148378D01*
X146498Y301878D01*
Y324756D01*
G02X149502I1502J4244D01*
G01Y303122D01*
X149622Y303002D01*
X159702D01*
G03X159985Y303684I0J400D01*
G01X157998Y305671D01*
Y324498D01*
X155498D01*
Y333502D01*
X164502D01*
Y324498D01*
X162002D01*
Y307329D01*
X162829Y306502D01*
X207329D01*
X212002Y301829D01*
Y288560D01*
X212380D01*
Y281440D01*
X207502D01*
Y279560D01*
X212580D01*
Y272440D01*
X207820D01*
Y274498D01*
X207200D01*
X205662Y276036D01*
G03X204980Y275753I-282J-283D01*
G01Y272440D01*
X200220D01*
Y274498D01*
X192122D01*
X188122Y270498D01*
X187898D01*
G03X187589Y269846I1J-400D01*
G02X188344Y268502I-3490J-2845D01*
G01X200220D01*
Y270560D01*
X204980D01*
Y263440D01*
X200220D01*
Y265498D01*
X188344D01*
G02X180611Y269846I-4244J1503D01*
G03X180302Y270498I-310J252D01*
G01X178478D01*
X176039Y272937D01*
G02X178163Y275061I-1939J4063D01*
G01X179722Y273502D01*
X180302D01*
G03X180611Y274154I-1J400D01*
G02X188527Y276182I3489J2846D01*
G03X189203Y275827I393J-72D01*
G01X190878Y277502D01*
X200220D01*
Y279560D01*
X204498D01*
Y281440D01*
X200020D01*
Y288560D01*
X200898D01*
Y291979D01*
X198379Y294498D01*
X110378D01*
X108184Y296692D01*
G03X107502Y296409I-282J-283D01*
G01Y228237D01*
G03X108184Y227954I400J0D01*
G01X111482Y231252D01*
X163482D01*
X164248Y232018D01*
Y265018D01*
X167482Y268252D01*
X169775D01*
G02Y265748I4325J-1252D01*
G01X168518D01*
X166752Y263982D01*
Y256987D01*
G03X167434Y256704I400J0D01*
G01X168982Y258252D01*
X169775D01*
G02X170051Y255031I4325J-1252D01*
G03X169409Y255139I-360J-175D01*
G01X168252Y253982D01*
Y229982D01*
X167204Y228934D01*
G03X167487Y228252I283J-282D01*
G01X171482D01*
X172848Y229618D01*
Y232675D01*
G02X175352I1252J4325D01*
G01Y228582D01*
X172518Y225748D01*
X152725D01*
G03X152383Y225141I0J-400D01*
G02X152671Y223632I-1883J-1141D01*
G03X153132Y223171I394J-67D01*
G02X155690Y221234I368J-2171D01*
G03X156370Y220994I397J43D01*
G01X159378Y224002D01*
X186878D01*
X190498Y227622D01*
Y253878D01*
X188878Y255498D01*
X188344D01*
G02Y258502I-4244J1502D01*
G01X190122D01*
X193502Y255122D01*
Y226378D01*
X188122Y220998D01*
X160622D01*
X158251Y218628D01*
Y186460D01*
G03X158782Y186082I400J0D01*
G02X160430Y185996I718J-2082D01*
G03X160998Y186359I168J363D01*
G01Y192389D01*
G02X164002I1502J1611D01*
G01Y142878D01*
X160622Y139498D01*
X143622D01*
X142502Y138378D01*
Y106002D01*
X167082D01*
G02X168918I918J-2002D01*
G01X179002D01*
Y74498D01*
X176428D01*
Y70916D01*
X172302D01*
Y70313D01*
X172360Y70254D01*
G02X169240I-1560J-1554D01*
G01X169298Y70313D01*
Y70916D01*
X165172D01*
Y74498D01*
X146418D01*
G02X144582I-918J2002D01*
G01X142502D01*
Y41878D01*
X139122Y38498D01*
X138244D01*
G02X137904Y42241I-4244J1501D01*
G03X138534Y42158I347J199D01*
G01X139498Y43122D01*
Y46409D01*
G03X138816Y46692I-400J0D01*
G01X137122Y44998D01*
X126122D01*
X125830Y44706D01*
G03X125940Y44062I283J-283D01*
G02X122498Y44244I-1941J-4062D01*
G01Y45622D01*
X123192Y46316D01*
G03X122909Y46998I-283J282D01*
G01X116622D01*
X115502Y45878D01*
Y44244D01*
G02X112498I-1502J-4244D01*
G01Y47122D01*
X113692Y48316D01*
G03X113409Y48998I-283J282D01*
G01X107622D01*
X105502Y46878D01*
Y44244D01*
G37*
G54D30*
X24000Y40000D03*
X34000D03*
X44000D03*
X54000D03*
X56000Y14000D03*
X66000D03*
X76000D03*
X64000Y40000D03*
X84000D03*
X86000Y14000D03*
X96000D03*
X94000Y40000D03*
X143000Y17000D03*
X126000Y243000D03*
X136000D03*
X126000Y288000D03*
X136000D03*
X169000Y19000D03*
X174100Y174000D03*
Y184000D03*
Y194000D03*
Y247000D03*
X170000Y329000D03*
X179000Y19000D03*
X189000D03*
X185000Y121000D03*
X184100Y164000D03*
Y174000D03*
Y184000D03*
Y194000D03*
Y237000D03*
Y247000D03*
G54D32*
X43000Y230090D03*
G54D34*
X81200Y78000D03*
G54D33*
X41024Y322000D03*
G54D28*
X198500Y80000D03*
G54D29*
X14000Y40000D03*
X46000Y14000D03*
X182000Y329000D03*
G54D35*
X78065Y228360D03*
G54D36*
X79300Y258400D03*
Y268100D03*
G54D31*
X43000Y264030D03*
%LPD*%
G75*
G36*
G01X31380Y77002D02*
Y84498D01*
X34220D01*
Y77002D01*
X31380D01*
G37*
G36*
G01X43761Y81778D02*
G03X40289Y82102I-1861J-1178D01*
G01X38980D01*
Y84160D01*
X38102D01*
Y85023D01*
X35623Y87502D01*
X31122D01*
X30925Y87698D01*
G02X31066Y88040I141J142D01*
G01X31380D01*
Y95498D01*
X34172D01*
X34220Y95450D01*
Y88040D01*
X38980D01*
Y89598D01*
X42571D01*
X44498Y87671D01*
Y81992D01*
G02X43761Y81778I-400J0D01*
G37*
G36*
G01X38980Y77002D02*
Y79098D01*
X40289D01*
G03X44099Y80482I1611J1502D01*
G01X44109Y80671D01*
X44498D01*
Y80517D01*
X47015Y78000D01*
X46017Y77002D01*
X38980D01*
G37*
G36*
G01Y93602D02*
Y95160D01*
X38602D01*
Y96488D01*
X38502Y96588D01*
Y96829D01*
X36974Y98357D01*
G02X37257Y99040I283J283D01*
G01X38980D01*
Y100598D01*
X42671D01*
X43498Y99771D01*
Y94171D01*
X43727Y93943D01*
G02X43585Y93602I-142J-141D01*
G01X38980D01*
G37*
G36*
G01X100622Y66002D02*
X97308Y69316D01*
G02X97591Y69998I283J282D01*
G01X102362D01*
X104673Y67688D01*
X109224D01*
Y66002D01*
X100622D01*
G37*
G36*
G01X83516Y127365D02*
Y127748D01*
X88620D01*
Y125440D01*
X92115D01*
G02X92481Y124880I-1J-400D01*
G03Y123120I2019J-880D01*
G02X92115Y122560I-367J-160D01*
G01X88620D01*
Y120252D01*
X87518D01*
X85518Y122252D01*
X83516D01*
Y122592D01*
X83016D01*
Y123408D01*
X83477D01*
X83534Y123357D01*
G03X84083Y127002I1466J1643D01*
G02X83516Y127365I-167J363D01*
G37*
G36*
G01X97002Y330162D02*
Y332171D01*
X100829Y335998D01*
X117409D01*
G02X117692Y335316I0J-400D01*
G01X116498Y334122D01*
Y333244D01*
G03X120019Y333024I1502J-4244D01*
G01X119990Y333038D01*
X119826Y333203D01*
X120122Y333498D01*
X125311D01*
G02X125530Y332764I0J-400D01*
G03X126498Y324756I2470J-3764D01*
G01Y299878D01*
X128192Y298184D01*
G02X127909Y297502I-283J-282D01*
G01X111622D01*
X109502Y299622D01*
Y324498D01*
X112502D01*
Y333502D01*
X103498D01*
Y324498D01*
X106498D01*
Y307298D01*
G02X105816Y307015I-400J0D01*
G01X104002Y308829D01*
Y320082D01*
G03X101082Y323002I-2002J918D01*
G01X88002D01*
Y323436D01*
X89364D01*
Y324798D01*
X91636D01*
Y323436D01*
X98364D01*
Y330162D01*
X97002D01*
G37*
G36*
G01X121584Y56502D02*
Y63250D01*
X120706D01*
Y63870D01*
X119630Y64946D01*
G02X119913Y65628I283J282D01*
G01X121584D01*
Y72750D01*
X121206D01*
Y73840D01*
X122800Y75435D01*
Y76762D01*
X124162D01*
Y78124D01*
X126829D01*
X128816Y80111D01*
G02X129498Y79828I282J-283D01*
G01Y57622D01*
X128378Y56502D01*
X121584D01*
G37*
G36*
G01X113984D02*
Y62998D01*
X116824D01*
Y56502D01*
X113984D01*
G37*
G36*
G01X114251Y223960D02*
Y224482D01*
X115518Y225748D01*
X148275D01*
G02X148617Y225141I0J-400D01*
G03X148998Y222389I1883J-1142D01*
G01Y151622D01*
X147878Y150502D01*
X137378D01*
X131750Y144873D01*
X126622Y150002D01*
X118122D01*
X117002Y151122D01*
Y219889D01*
G03X114782Y223582I-1501J1611D01*
G02X114251Y223960I-131J378D01*
G37*
G36*
G01X140447Y299502D02*
X131122D01*
X129502Y301122D01*
Y324756D01*
G03X130846Y325511I-1501J4245D01*
G02X131498Y325202I252J-310D01*
G01Y317878D01*
X140998Y308378D01*
Y303111D01*
G03X140763Y300147I1502J-1610D01*
G02X140447Y299502I-316J-245D01*
G37*
G36*
G01X143000Y75500D02*
Y105000D01*
X178000D01*
Y75500D01*
X143000D01*
G37*
G36*
G01X181000Y55000D02*
Y105000D01*
X216000D01*
Y55000D01*
X181000D01*
G37*
%LPC*%
G75*
G54D38*
X170800Y83000D03*
Y78000D03*
Y88000D03*
X189200Y83000D03*
Y78000D03*
Y73000D03*
Y88000D03*
G54D37*
X134000Y178200D03*
%LPD*%
G75*
G54D10*
X18000Y18000D03*
Y327000D03*
X212000Y18000D03*
Y327000D03*
G54D20*
X81200Y73000D03*
Y78000D03*
Y83000D03*
X62800Y73000D03*
Y78000D03*
Y83000D03*
X81200Y88000D03*
X62800D03*
X170800Y73000D03*
Y78000D03*
Y83000D03*
Y88000D03*
X189200Y73000D03*
Y78000D03*
Y83000D03*
Y88000D03*
G54D11*
X24000Y40000D03*
X54000D03*
X44000D03*
X34000D03*
X76000Y14000D03*
X66000D03*
X56000D03*
X84000Y40000D03*
X74000D03*
X64000D03*
X96000Y14000D03*
X86000D03*
X114000Y40000D03*
X104000D03*
X94000D03*
X143000Y17000D03*
X134000Y40000D03*
X124000D03*
X136000Y243000D03*
X126000D03*
X116000D03*
X136000Y288000D03*
X126000D03*
X116000D03*
X138000Y329000D03*
X128000D03*
X118000D03*
X169000Y19000D03*
X174100Y174000D03*
Y164000D03*
Y154000D03*
Y194000D03*
Y184000D03*
Y257000D03*
Y247000D03*
Y237000D03*
Y277000D03*
Y267000D03*
X148000Y329000D03*
X170000D03*
X189000Y19000D03*
X179000D03*
X185000Y121000D03*
X184100Y174000D03*
Y164000D03*
Y154000D03*
Y194000D03*
Y184000D03*
Y257000D03*
Y247000D03*
Y237000D03*
Y277000D03*
Y267000D03*
X192000Y329000D03*
G54D21*
X80349Y129000D03*
Y127000D03*
Y125000D03*
Y123000D03*
Y121000D03*
X63749D03*
Y123000D03*
Y125000D03*
Y127000D03*
Y129000D03*
G54D12*
X14000Y40000D03*
X46000Y14000D03*
X108000Y329000D03*
X153000Y17000D03*
X175000Y121000D03*
X160000Y329000D03*
X182000D03*
G54D22*
X78065Y228360D03*
X87125D03*
G54D13*
X9000Y50500D03*
X52000Y73000D03*
X41900Y80600D03*
X74000Y56500D03*
X55500Y83000D03*
Y64000D03*
X62800Y108000D03*
X68000Y115800D03*
Y125000D03*
X73500D03*
X57500Y118500D03*
Y125000D03*
X69700Y219200D03*
Y248800D03*
X72500Y282500D03*
X98500Y47000D03*
X105500Y74000D03*
X99500Y88000D03*
X90000Y124000D03*
X94500D03*
X104500Y129000D03*
X91000Y139000D03*
X109000D03*
X85000Y125000D03*
X91500Y164000D03*
X85000Y143500D03*
X94500Y258400D03*
X91000Y287500D03*
X102000Y321000D03*
X127500Y88000D03*
X113500Y124000D03*
X116000Y121000D03*
X115500Y221500D03*
X142500Y301500D03*
X145000Y80000D03*
X145500Y76500D03*
X155000Y77000D03*
X154500Y80000D03*
Y83000D03*
X153000Y60000D03*
X170800Y68700D03*
X145000Y87000D03*
X144500Y83500D03*
X150500Y101000D03*
X152500Y103500D03*
X150500Y89000D03*
X151500Y92000D03*
X153000Y95000D03*
X154500Y98000D03*
X155000Y86000D03*
X160500Y97500D03*
X162500Y100000D03*
X165000Y102000D03*
X168000Y104000D03*
X160500Y86500D03*
X161500Y89500D03*
X163000Y92500D03*
X165000Y95000D03*
X169500Y92500D03*
X172500Y95000D03*
X159500Y184000D03*
X162500Y194000D03*
X153500Y221000D03*
X150500Y224000D03*
X200000Y66500D03*
X197500Y64000D03*
X195000Y62000D03*
X189500Y64500D03*
X186500Y63000D03*
X183000Y62500D03*
X198500Y74500D03*
X199500Y78000D03*
X200000Y81500D03*
X176000Y96500D03*
X199500Y85000D03*
X202000Y93500D03*
X200500Y96500D03*
X198500Y99000D03*
X196000Y101000D03*
X189000Y99500D03*
X186000Y101000D03*
X182500Y102000D03*
X190000Y93000D03*
X187000Y95000D03*
X184000Y96500D03*
X184100Y129000D03*
X179100Y136100D03*
X201500Y298000D03*
X206000Y58500D03*
X208000Y61000D03*
X210000Y64000D03*
Y76500D03*
X210500Y80000D03*
X212000Y96500D03*
X210500Y99500D03*
X208500Y102500D03*
X210500Y83500D03*
X210000Y87000D03*
X209000Y90500D03*
X215500Y298000D03*
G54D23*
X109807Y80126D03*
Y92500D03*
Y104874D03*
X120799Y80126D03*
Y92500D03*
Y104874D03*
G54D14*
X14000Y178200D03*
X134000D03*
G54D24*
X95000Y315807D03*
X86000D03*
X95000Y326799D03*
X86000D03*
G54D15*
X43000Y264030D03*
G54D25*
G01X35900Y69500D02*
X40000D01*
G01X29000Y76839D02*
Y80600D01*
G01D02*
Y84361D01*
G01X26420Y80600D02*
X29000D01*
G01D02*
X31580D01*
G01X35900Y54440D02*
Y58300D01*
G01D02*
X38972D01*
G01X62800Y73000D02*
X52000D01*
G01X41900Y80600D02*
X36600D01*
G01X29000Y91600D02*
Y87500D01*
X30500Y86000D01*
X35001D01*
X36600Y84401D01*
Y80600D01*
G01X46300Y125000D02*
Y128860D01*
G01X43228Y125000D02*
X46300D01*
G01X43000Y223474D02*
Y230090D01*
G01D02*
Y236706D01*
G01X39829Y230090D02*
X43000D01*
G01D02*
X46171D01*
G01X41024Y316861D02*
Y322000D01*
G01D02*
Y327139D01*
G01X31948Y322000D02*
X41024D01*
G01D02*
X50100D01*
G01X64000Y35298D02*
Y40000D01*
G01D02*
Y44702D01*
G01X59298Y40000D02*
X64000D01*
G01D02*
X68702D01*
G01X81200Y75715D02*
Y78000D01*
G01D02*
Y80285D01*
G01X75372Y78000D02*
X81200D01*
G01D02*
X87028D01*
G01X81200Y73000D02*
X91500D01*
X100000Y64500D01*
X117952D01*
X119204Y63248D01*
Y59689D01*
G01X81200Y83000D02*
X94500D01*
X95500Y82000D01*
Y73000D01*
X97000Y71500D01*
X102984D01*
G01X80349Y123000D02*
X83181D01*
G01X78065Y224008D02*
Y228360D01*
G01D02*
Y232712D01*
G01X74501Y228360D02*
X78065D01*
G01D02*
X81629D01*
G01X56390Y230090D02*
X63590D01*
X72800Y239300D01*
X78600D01*
G01X79300Y254540D02*
Y258400D01*
G01D02*
Y262260D01*
G01X76228Y258400D02*
X79300D01*
G01X86400Y248800D02*
Y245241D01*
X85159Y244000D01*
X79741D01*
X78600Y242859D01*
Y239300D01*
G01X79300Y264240D02*
Y268100D01*
G01D02*
Y271960D01*
G01X76228Y268100D02*
X79300D01*
G01Y287500D02*
Y291360D01*
G01X76228Y287500D02*
X79300D01*
G01Y273940D02*
Y277800D01*
G01X76228D02*
X79300D01*
G01X104000Y40000D02*
Y47500D01*
X107000Y50500D01*
X132500D01*
X135000Y53000D01*
Y142500D01*
X139500Y147000D01*
X151500D01*
X153500Y149000D01*
Y221000D01*
G01X150500Y224000D02*
Y151000D01*
X148500Y149000D01*
X138000D01*
X133000Y144000D01*
Y55000D01*
X130500Y52500D01*
X100500D01*
X98500Y50500D01*
Y47000D01*
G01X111604Y69189D02*
X105295D01*
X102984Y71500D01*
G01X105500Y74000D02*
X105484D01*
X102984Y71500D01*
G01X111604Y59689D02*
Y56130D01*
X112734Y55000D01*
X129000D01*
X131000Y57000D01*
Y143500D01*
X126000Y148500D01*
X117500D01*
X115500Y150500D01*
Y221500D01*
G01X98600Y119000D02*
Y129000D01*
G01D02*
X104500D01*
G01X86200Y235539D02*
Y239300D01*
G01X83620D02*
X86200D01*
G01D02*
X88780D01*
G01X108000Y329000D02*
Y299000D01*
X111000Y296000D01*
X199001D01*
X202400Y292601D01*
Y285000D01*
G01X138298Y17000D02*
X143000D01*
G01X124000Y40000D02*
Y45000D01*
X125500Y46500D01*
X136500D01*
X139000Y49000D01*
Y140500D01*
X141500Y143000D01*
X157000D01*
X159500Y145500D01*
Y184000D01*
G01X134000Y40000D02*
X138500D01*
X141000Y42500D01*
Y139000D01*
X143000Y141000D01*
X160000D01*
X162500Y143500D01*
Y194000D01*
G01X184100Y257000D02*
X189500D01*
X192000Y254500D01*
Y227000D01*
X187500Y222500D01*
X160000D01*
X156750Y219250D01*
Y147250D01*
X154500Y145000D01*
X140500D01*
X137000Y141500D01*
Y51000D01*
X134500Y48500D01*
X116000D01*
X114000Y46500D01*
Y40000D01*
G01X126000Y238298D02*
Y243000D01*
G01D02*
Y247702D01*
G01X121298Y243000D02*
X126000D01*
G01D02*
X130702D01*
G01X126000Y283298D02*
Y288000D01*
G01D02*
Y292702D01*
G01X121298Y288000D02*
X126000D01*
G01D02*
X130702D01*
G01X128000Y329000D02*
Y300500D01*
X130500Y298000D01*
X201500D01*
G01X118000Y329000D02*
Y333500D01*
X119500Y335000D01*
X131000D01*
X133000Y333000D01*
Y318500D01*
X142500Y309000D01*
Y301500D01*
G01X138000Y324298D02*
Y329000D01*
G01D02*
Y333702D01*
G01Y329000D02*
X142702D01*
G01X143000Y12298D02*
Y17000D01*
G01D02*
Y21702D01*
G01Y17000D02*
X147702D01*
G01X153000Y60000D02*
Y17000D01*
G01X170800Y73000D02*
Y68700D01*
G01X169398Y174000D02*
X174100D01*
G01X169398Y247000D02*
X174100D01*
G01X148000Y329000D02*
Y302500D01*
X149000Y301500D01*
X203000D01*
X206000Y298500D01*
Y277822D01*
X207822Y276000D01*
X210200D01*
G01X170000Y324298D02*
Y329000D01*
G01D02*
Y333702D01*
G01X165298Y329000D02*
X170000D01*
G01D02*
X174702D01*
G01X189000Y14298D02*
Y19000D01*
G01D02*
Y23702D01*
G01X184298Y19000D02*
X189000D01*
G01D02*
X193702D01*
G01X184100Y129000D02*
Y154000D01*
G01X175000Y121000D02*
Y135000D01*
X176100Y136100D01*
X179100D01*
G01X174100Y169298D02*
Y174000D01*
G01X184100Y189298D02*
Y194000D01*
G01D02*
Y198702D01*
G01X179398Y194000D02*
X184100D01*
G01D02*
X188802D01*
G01X174100Y174000D02*
Y178702D01*
G01Y174000D02*
X178802D01*
G01X174100Y242298D02*
Y247000D01*
G01D02*
Y251702D01*
G01Y247000D02*
X178802D01*
G01X184100Y277000D02*
Y281702D01*
G01X179398Y277000D02*
X184100D01*
G01D02*
X188802D01*
G01X202600Y267000D02*
X184100D01*
G01X174100Y277000D02*
X179100Y272000D01*
X187500D01*
X191500Y276000D01*
X202600D01*
G01X210200Y267000D02*
X213500D01*
X215500Y269000D01*
Y298000D01*
G54D16*
X36600Y80600D03*
X29000D03*
X36600Y91600D03*
X29000D03*
X36600Y102600D03*
X29000D03*
X53400Y134100D03*
X45800D03*
X78600Y239300D03*
X78800Y248800D03*
X111604Y59689D03*
Y69189D03*
X98600Y119000D03*
X91000D03*
X98600Y129000D03*
X91000D03*
X86200Y239300D03*
X86400Y248800D03*
X119204Y59689D03*
Y69189D03*
X202600Y276000D03*
Y267000D03*
X202400Y285000D03*
X210200Y276000D03*
Y267000D03*
X210000Y285000D03*
G54D26*
G01X45800Y134100D02*
X14100D01*
X9000Y129000D01*
Y50500D01*
G01X62800Y78000D02*
X49846D01*
G01D02*
X46500Y81346D01*
Y88500D01*
X43400Y91600D01*
X36600D01*
G01X49846Y78000D02*
X46846Y75000D01*
X32343D01*
X29500Y72157D01*
Y69500D01*
G01Y58300D02*
Y62458D01*
X31042Y64000D01*
X55500D01*
G01X29000Y102600D02*
Y98500D01*
X30000Y97500D01*
X35000D01*
X36500Y96000D01*
Y95759D01*
X36600Y95659D01*
Y91600D01*
G01X62800Y88000D02*
X52500D01*
X45500Y95000D01*
Y100600D01*
X43500Y102600D01*
X36600D01*
G01X52700Y125000D02*
Y129158D01*
X53400Y129858D01*
Y134100D01*
G01X49690Y230090D02*
Y221810D01*
X52300Y219200D01*
X69700D01*
G01X36310Y230090D02*
Y219190D01*
X39500Y216000D01*
X91000D01*
X94500Y219500D01*
Y258400D01*
G01X29610Y230090D02*
X36310D01*
G01X74000Y56500D02*
Y40000D01*
G01X81200Y88000D02*
X73000D01*
X71000Y86000D01*
Y80001D01*
X68999Y78000D01*
X62800D01*
G01X99500Y88000D02*
X81200D01*
G01X62800Y108000D02*
Y88000D01*
G01X55500Y83000D02*
X62800D01*
G01X87125Y228360D02*
Y222400D01*
X83925Y219200D01*
X69700D01*
G01X78800Y248800D02*
X69700D01*
G01X85700Y277800D02*
Y280800D01*
X84000Y282500D01*
X72500D01*
G01X68976Y322000D02*
X84000D01*
X86000Y324000D01*
Y326799D01*
G01X120799Y92500D02*
Y87799D01*
X119000Y86000D01*
X111807D01*
X109807Y84000D01*
Y80126D01*
G01Y104874D02*
Y130693D01*
X105500Y135000D01*
Y304500D01*
X102000Y308000D01*
Y321000D01*
G01X120799Y104874D02*
Y100799D01*
X119000Y99000D01*
X111500D01*
X109807Y97307D01*
Y92500D01*
G01X91500Y164000D02*
Y196000D01*
X98500Y203000D01*
Y284500D01*
X95500Y287500D01*
X91000D01*
G01X95000Y315807D02*
Y309500D01*
X102000Y302500D01*
Y146500D01*
X99000Y143500D01*
X85000D01*
G01X85700Y258400D02*
X94500D01*
G01X85700Y287500D02*
X91000D01*
G01X85700Y268100D02*
Y277800D01*
G01X86000Y315807D02*
Y319000D01*
X88000Y321000D01*
X102000D01*
G01X95000Y326799D02*
Y333000D01*
X100000Y338000D01*
X188500D01*
X192000Y334500D01*
Y329000D01*
G01X95000Y326799D02*
X86000D01*
G01X119204Y69189D02*
Y74669D01*
X120799Y76264D01*
Y80126D01*
G01D02*
X126000D01*
X127500Y81626D01*
Y88000D01*
G01X116000Y288000D02*
Y243000D01*
G01X170800Y76215D02*
Y78000D01*
G01D02*
Y79785D01*
G01X165472Y78000D02*
X170800D01*
G01D02*
X176128D01*
G01X170800Y81215D02*
Y83000D01*
G01Y86215D02*
Y88000D01*
G01D02*
Y89785D01*
G01X165472Y88000D02*
X170800D01*
G01D02*
X176128D01*
G01X170800Y83000D02*
Y84785D01*
G01X165472Y83000D02*
X170800D01*
G01D02*
X176128D01*
G01X160000Y329000D02*
Y306500D01*
X162000Y304500D01*
X206500D01*
X210000Y301000D01*
Y285000D01*
G01X189200Y71215D02*
Y73000D01*
G01D02*
Y74785D01*
G01X183872Y73000D02*
X189200D01*
G01D02*
X194528D01*
G01X189200Y76215D02*
Y78000D01*
G01D02*
Y79785D01*
G01X183872Y78000D02*
X189200D01*
G01D02*
X194528D01*
G01X189200Y81215D02*
Y83000D01*
G01Y86215D02*
Y88000D01*
G01D02*
Y89785D01*
G01X183872Y88000D02*
X189200D01*
G01D02*
X194528D01*
G01X189200Y83000D02*
Y84785D01*
G01X183872Y83000D02*
X189200D01*
G01D02*
X194528D01*
G01X174100Y164000D02*
Y154000D01*
G54D17*
X35900Y69500D03*
X29500D03*
X35900Y58300D03*
X29500D03*
X46300Y115800D03*
X52700D03*
X46300Y125000D03*
X52700D03*
X79300Y258400D03*
Y268100D03*
Y287500D03*
Y277800D03*
X85700Y258400D03*
Y268100D03*
Y287500D03*
Y277800D03*
G54D27*
G01X46300Y115800D02*
Y119500D01*
X47750Y120950D01*
X57950D01*
X60000Y123000D01*
X63749D01*
G01Y127000D02*
X59500D01*
X58000Y128500D01*
Y138000D01*
X56500Y139500D01*
X47500D01*
X45800Y137800D01*
Y134100D01*
G01X63749Y125000D02*
X68000D01*
G01Y115800D02*
X52700D01*
G01X91000Y119000D02*
X87000D01*
X85000Y121000D01*
X80349D01*
G01Y127000D02*
X75500D01*
X73500Y125000D01*
G01X80349Y129000D02*
X91000D01*
G01X57500Y125000D02*
X52700D01*
G01X85000D02*
X80349D01*
G01X63749Y129000D02*
X69500D01*
X71000Y127500D01*
Y122500D01*
X69500Y121000D01*
G01D02*
X63749D01*
G01X80349Y125000D02*
X77000D01*
X76000Y124000D01*
Y121000D01*
X74500Y119500D01*
X71000D01*
X69500Y121000D01*
G01X63749D02*
Y119659D01*
X62590Y118500D01*
X57500D01*
G01X94500Y124000D02*
Y120000D01*
X93500Y119000D01*
X91000D01*
G01X174100Y257000D02*
X169500D01*
X167000Y254500D01*
Y230500D01*
X165000Y228500D01*
X113500D01*
X111000Y226000D01*
Y141500D01*
X113500Y139000D01*
Y124000D01*
G01X91000Y129000D02*
Y139000D01*
G01X174100Y267000D02*
X168000D01*
X165500Y264500D01*
Y231500D01*
X164000Y230000D01*
X112000D01*
X109000Y227000D01*
Y139000D01*
G01X174100Y237000D02*
Y229100D01*
X172000Y227000D01*
X115000D01*
X113000Y225000D01*
Y142000D01*
X116000Y139000D01*
Y121000D01*
G54D18*
X49690Y230090D03*
X43000D03*
X36310D03*
X29610D03*
X56390D03*
G54D19*
X41024Y322000D03*
X68976D03*
M02*
